name rise35.5848peak51.9257fall54.8793.mot
datacolumns 19
datarows 18
range 2.09332000000000 2.12165300000000
endheader
time	ground_force1_vx	ground_force1_vy	ground_force1_vz	ground_force1_px	ground_force1_py	ground_force1_pz	ground_force2_vx	ground_force2_vy	ground_force2_vz	ground_force2_px	ground_force2_py	ground_force2_pz	ground_torque1_x	ground_torque1_y	ground_torque1_z	ground_torque2_x	ground_torque2_y	ground_torque2_z	
2.09332000000000	12.91206200000000	693.31169199999999	32.46937500000000	0.21649400000000	0.00000000000000	0.09275400000000	0.00000000000000	0.00000000000000	0.00000000000000	0.00000000000000	0.00000000000000	0.00000000000000	0.00000000000000	11.11207700000000	0.00000000000000	0.00000000000000	0.00000000000000	0.00000000000000	
2.09498800000000	12.52809000000000	693.69314199999997	32.49025600000000	0.21563700000000	0.00000000000000	0.09276100000000	0.00000000000000	0.00000000000000	0.00000000000000	0.00000000000000	0.00000000000000	0.00000000000000	0.00000000000000	11.17576200000000	0.00000000000000	0.00000000000000	0.00000000000000	0.00000000000000	
2.09665300000000	12.13633600000000	694.12363500000004	32.51732400000000	0.21476800000000	0.00000000000000	0.09276900000000	0.00000000000000	0.00000000000000	0.00000000000000	0.00000000000000	0.00000000000000	0.00000000000000	0.00000000000000	11.24390200000000	0.00000000000000	0.00000000000000	0.00000000000000	0.00000000000000	
2.09831800000000	11.73653100000000	694.60214099999996	32.55034600000000	0.21388600000000	0.00000000000000	0.09277900000000	0.00000000000000	0.00000000000000	0.00000000000000	0.00000000000000	0.00000000000000	0.00000000000000	0.00000000000000	11.31639000000000	0.00000000000000	0.00000000000000	0.00000000000000	0.00000000000000	
2.09999100000000	11.32842000000000	695.12765000000002	32.58909000000000	0.21299100000000	0.00000000000000	0.09279000000000	0.00000000000000	0.00000000000000	0.00000000000000	0.00000000000000	0.00000000000000	0.00000000000000	0.00000000000000	11.39311900000000	0.00000000000000	0.00000000000000	0.00000000000000	0.00000000000000	
2.10165200000000	10.91176800000000	695.69918600000005	32.63332100000000	0.21208400000000	0.00000000000000	0.09280200000000	0.00000000000000	0.00000000000000	0.00000000000000	0.00000000000000	0.00000000000000	0.00000000000000	0.00000000000000	11.47398000000000	0.00000000000000	0.00000000000000	0.00000000000000	0.00000000000000	
2.10331600000000	10.48635200000000	696.31580499999995	32.68280500000000	0.21116500000000	0.00000000000000	0.09281600000000	0.00000000000000	0.00000000000000	0.00000000000000	0.00000000000000	0.00000000000000	0.00000000000000	0.00000000000000	11.55886200000000	0.00000000000000	0.00000000000000	0.00000000000000	0.00000000000000	
2.10498600000000	10.05197200000000	696.97660099999996	32.73730700000000	0.21023300000000	0.00000000000000	0.09283000000000	0.00000000000000	0.00000000000000	0.00000000000000	0.00000000000000	0.00000000000000	0.00000000000000	0.00000000000000	11.64765400000000	0.00000000000000	0.00000000000000	0.00000000000000	0.00000000000000	
2.10665400000000	9.60844100000000	697.68071099999997	32.79659500000000	0.20928900000000	0.00000000000000	0.09284600000000	0.00000000000000	0.00000000000000	0.00000000000000	0.00000000000000	0.00000000000000	0.00000000000000	0.00000000000000	11.74024500000000	0.00000000000000	0.00000000000000	0.00000000000000	0.00000000000000	
2.10831900000000	9.15559500000000	698.42732000000001	32.86044000000000	0.20833300000000	0.00000000000000	0.09286300000000	0.00000000000000	0.00000000000000	0.00000000000000	0.00000000000000	0.00000000000000	0.00000000000000	0.00000000000000	11.83652100000000	0.00000000000000	0.00000000000000	0.00000000000000	0.00000000000000	
2.10998500000000	8.69328600000000	699.21565799999996	32.92861300000000	0.20736600000000	0.00000000000000	0.09288000000000	0.00000000000000	0.00000000000000	0.00000000000000	0.00000000000000	0.00000000000000	0.00000000000000	0.00000000000000	11.93636700000000	0.00000000000000	0.00000000000000	0.00000000000000	0.00000000000000	
2.11165200000000	8.22138800000000	700.04501200000004	33.00089100000000	0.20638800000000	0.00000000000000	0.09289900000000	0.00000000000000	0.00000000000000	0.00000000000000	0.00000000000000	0.00000000000000	0.00000000000000	0.00000000000000	12.03966900000000	0.00000000000000	0.00000000000000	0.00000000000000	0.00000000000000	
2.11331800000000	7.73979100000000	700.91471799999999	33.07705400000000	0.20539900000000	0.00000000000000	0.09291800000000	0.00000000000000	0.00000000000000	0.00000000000000	0.00000000000000	0.00000000000000	0.00000000000000	0.00000000000000	12.14630900000000	0.00000000000000	0.00000000000000	0.00000000000000	0.00000000000000	
2.11498500000000	7.24841000000000	701.82417199999998	33.15688800000000	0.20440000000000	0.00000000000000	0.09293900000000	0.00000000000000	0.00000000000000	0.00000000000000	0.00000000000000	0.00000000000000	0.00000000000000	0.00000000000000	12.25617200000000	0.00000000000000	0.00000000000000	0.00000000000000	0.00000000000000	
2.11665200000000	6.74717800000000	702.77282400000001	33.24018400000000	0.20339200000000	0.00000000000000	0.09295900000000	0.00000000000000	0.00000000000000	0.00000000000000	0.00000000000000	0.00000000000000	0.00000000000000	0.00000000000000	12.36913800000000	0.00000000000000	0.00000000000000	0.00000000000000	0.00000000000000	
2.11832200000000	6.23604800000000	703.76018299999998	33.32674000000000	0.20237500000000	0.00000000000000	0.09298100000000	0.00000000000000	0.00000000000000	0.00000000000000	0.00000000000000	0.00000000000000	0.00000000000000	0.00000000000000	12.48508800000000	0.00000000000000	0.00000000000000	0.00000000000000	0.00000000000000	
2.11998300000000	5.71499600000000	704.78581599999995	33.41635900000000	0.20134900000000	0.00000000000000	0.09300200000000	0.00000000000000	0.00000000000000	0.00000000000000	0.00000000000000	0.00000000000000	0.00000000000000	0.00000000000000	12.60390000000000	0.00000000000000	0.00000000000000	0.00000000000000	0.00000000000000	
2.12165300000000	5.18401900000000	705.84934799999996	33.50885500000000	0.20031600000000	0.00000000000000	0.09302500000000	0.00000000000000	0.00000000000000	0.00000000000000	0.00000000000000	0.00000000000000	0.00000000000000	0.00000000000000	12.72545400000000	0.00000000000000	0.00000000000000	0.00000000000000	0.00000000000000	
